# xmcd CD database file
#
# Track frame offsets:
#	183
#	16603
#	29553
#	40963
#	55135
#	67448
#	80688
#	94365
#	110785
#	122903
#	135265
#	144800
#	154555
#	165693
#
# Disc length: 2410 seconds
#
# Revision: 0
# Processed by: cddbd v1.4PL0 Copyright (c) Steve Scherf et al.
# Submitted via: CDex 1.50beta10
#
DISCID=bf09680e
DTITLE=Irmãos Bertussi - Irmãos Bertussi - 40 anos - Ontem, Hoje, Sempre
DYEAR=1900
DGENRE=Country
TTITLE0=Oh de casa
TTITLE1=Amor del alma
TTITLE2=Saudades de Criúva
TTITLE3=Baile da serra
TTITLE4=Um pedaço de minha vida
TTITLE5=Sul brasileiro
TTITLE6=Volta do tropeiro
TTITLE7=Sangue de gaúcho
TTITLE8=Canção do passado
TTITLE9=Fandango no rincão
TTITLE10=Fronteira oeste
TTITLE11=Zaino de estimação
TTITLE12=Manhoso
TTITLE13=Carreirada do Aparício
EXTD=
EXTT0=
EXTT1=
EXTT2=
EXTT3=
EXTT4=
EXTT5=
EXTT6=
EXTT7=
EXTT8=
EXTT9=
EXTT10=
EXTT11=
EXTT12=
EXTT13=
PLAYORDER=
